<?xml version="1.0" encoding="utf-8"?>
<!-- Generator: Adobe Illustrator 17.0.0, SVG Export Plug-In . SVG Version: 6.00 Build 0)  -->
<!DOCTYPE svg PUBLIC "-//W3C//DTD SVG 1.1//EN" "http://www.w3.org/Graphics/SVG/1.1/DTD/svg11.dtd">
<svg version="1.1" id="Layer_1" xmlns="http://www.w3.org/2000/svg" xmlns:xlink="http://www.w3.org/1999/xlink" x="0px" y="0px"
	 width="1440px" height="1440px" viewBox="0 0 1440 1440" enable-background="new 0 0 1440 1440" xml:space="preserve">
<g>
	<linearGradient id="SVGID_1_" gradientUnits="userSpaceOnUse" x1="528.9718" y1="820.0547" x2="1044.9731" y2="94.5945">
		<stop  offset="0" style="stop-color:#0E3344"/>
		<stop  offset="0.0717" style="stop-color:#0E3645"/>
		<stop  offset="0.151" style="stop-color:#0F3D4A"/>
		<stop  offset="0.2336" style="stop-color:#104A52"/>
		<stop  offset="0.2963" style="stop-color:#10585A"/>
		<stop  offset="0.605" style="stop-color:#217E72"/>
		<stop  offset="0.8665" style="stop-color:#2E9D83"/>
		<stop  offset="1" style="stop-color:#33AD8D"/>
	</linearGradient>
	<path fill="url(#SVGID_1_)" d="M1309.926,226.437c0,0-218.902-128.766-562.278,44.353c0,0-251.809,117.32-241.794,360.544
		c0,0,24.322,240.363,289.008,231.779c0,0-188.38,67.244-332.883-133.535c-29.707-41.276-42.505-96.95-42.303-146.817
		c0.193-47.745,6.163-88.564,24.842-131.984c20.01-46.513,49.071-90.062,83.817-126.803c25.985-27.477,55.346-46.957,85.301-69.399
		c0.028-0.021,161.696-121.134,433.035-110.166C1046.671,144.408,1185.929,145.839,1309.926,226.437z"/>
	<linearGradient id="SVGID_2_" gradientUnits="userSpaceOnUse" x1="382.2932" y1="414.5275" x2="1309.4968" y2="837.0983">
		<stop  offset="0.0323" style="stop-color:#44AE73"/>
		<stop  offset="0.3656" style="stop-color:#44AE73"/>
		<stop  offset="0.4362" style="stop-color:#41AD77"/>
		<stop  offset="0.5429" style="stop-color:#39AA82"/>
		<stop  offset="0.672" style="stop-color:#29A794"/>
		<stop  offset="0.7574" style="stop-color:#14A5A1"/>
		<stop  offset="0.8341" style="stop-color:#27A8A3"/>
		<stop  offset="0.9475" style="stop-color:#47B1AA"/>
		<stop  offset="1" style="stop-color:#55B7AE"/>
	</linearGradient>
	<path fill="url(#SVGID_2_)" d="M733.341,183.515C322.244,291.297,327.967,596.52,327.967,596.52
		C313.659,762.485,458.64,876.943,458.64,876.943c180.272,146.888,389.159,61.045,389.159,61.045
		c198.395-92.521,334.791-268.978,334.791-268.978c91.567-129.72,227.963-190.764,227.963-190.764L1422,446.77
		c-167.873,48.645-346.237,242.271-346.237,242.271c-171.688,181.226-280.9,174.072-280.9,174.072s-188.38,67.244-332.883-133.535
		c-29.707-41.276-42.505-96.95-42.303-146.817c0.193-47.745,6.163-88.564,24.842-131.984c20.01-46.513,49.071-90.062,83.817-126.803
		c25.985-27.477,55.346-46.957,85.301-69.399c0.018-0.014,68.813-51.551,191.959-84.344
		C805.595,170.23,753.492,178.232,733.341,183.515z"/>
	<linearGradient id="SVGID_3_" gradientUnits="userSpaceOnUse" x1="74.0032" y1="425.1649" x2="1225.632" y2="787.9613">
		<stop  offset="0" style="stop-color:#59B7A3"/>
		<stop  offset="0.0297" style="stop-color:#4BB4A8"/>
		<stop  offset="0.0759" style="stop-color:#40B3AB"/>
		<stop  offset="0.2043" style="stop-color:#3DB2AC"/>
		<stop  offset="0.2304" style="stop-color:#38A5A4"/>
		<stop  offset="0.3072" style="stop-color:#2A8D94"/>
		<stop  offset="0.384" style="stop-color:#207C89"/>
		<stop  offset="0.4601" style="stop-color:#197081"/>
		<stop  offset="0.5351" style="stop-color:#15697C"/>
		<stop  offset="0.6075" style="stop-color:#13677B"/>
		<stop  offset="0.694" style="stop-color:#15697C"/>
		<stop  offset="0.7647" style="stop-color:#1C6E7F"/>
		<stop  offset="0.8298" style="stop-color:#257885"/>
		<stop  offset="0.8916" style="stop-color:#32878D"/>
		<stop  offset="0.9505" style="stop-color:#429B98"/>
		<stop  offset="1" style="stop-color:#54B6A6"/>
	</linearGradient>
	<path fill="url(#SVGID_3_)" d="M884.999,999.748c158.077-113.947,269.275-297.326,269.275-297.326s104.146-166.947,255.803-224.176
		c0,0-27.184,105.874-31.476,141.642c0,0-100.151,44.353-248.947,278.993c0,0-161.673,251.809-424.927,289.008
		c0,0-234.64,45.783-439.235-143.073c0,0-218.902-218.902-174.549-493.603c0,0,18.6-260.393,278.993-423.497
		c0,0,257.532-148.796,546.54-52.937c0,0-436.373-65.814-663.86,267.547c0,0-118.751,168.826-68.675,376.283
		c0,0,44.353,274.701,351.96,359.114C535.9,1077.723,713.311,1123.506,884.999,999.748z"/>
	<linearGradient id="SVGID_4_" gradientUnits="userSpaceOnUse" x1="51.3616" y1="582.595" x2="1359.7948" y2="1030.9475">
		<stop  offset="0" style="stop-color:#0A9FAE"/>
		<stop  offset="0.017" style="stop-color:#0F92A2"/>
		<stop  offset="0.0736" style="stop-color:#137485"/>
		<stop  offset="0.1285" style="stop-color:#135F71"/>
		<stop  offset="0.1805" style="stop-color:#125164"/>
		<stop  offset="0.2286" style="stop-color:#11485D"/>
		<stop  offset="0.2688" style="stop-color:#11465A"/>
		<stop  offset="0.3005" style="stop-color:#114457"/>
		<stop  offset="0.6075" style="stop-color:#10303E"/>
		<stop  offset="0.6969" style="stop-color:#113240"/>
		<stop  offset="0.77" style="stop-color:#133846"/>
		<stop  offset="0.8374" style="stop-color:#154150"/>
		<stop  offset="0.9012" style="stop-color:#184F5F"/>
		<stop  offset="0.9621" style="stop-color:#176173"/>
		<stop  offset="1" style="stop-color:#107084"/>
	</linearGradient>
	<path fill="url(#SVGID_4_)" d="M1378.601,619.888c0,0-100.151,44.353-248.947,278.993c0,0-161.673,251.809-424.927,289.008
		c0,0-234.64,45.783-439.235-143.073c0,0-218.902-218.902-174.549-493.603c0,0,18.6-260.393,278.993-423.497
		c0,0-368.175,195.057-351.006,589.939c0,0,46.659,499.827,573.168,606.655c0,0,370.482,61.497,634.37-269.002
		c0,0,114.459-158.334,140.212-349.099C1366.678,706.209,1377.17,632.765,1378.601,619.888z"/>
	<linearGradient id="SVGID_5_" gradientUnits="userSpaceOnUse" x1="18" y1="1051.8085" x2="1366.686" y2="1051.8085">
		<stop  offset="0" style="stop-color:#143D4F"/>
		<stop  offset="0.0165" style="stop-color:#143746"/>
		<stop  offset="0.0395" style="stop-color:#14323E"/>
		<stop  offset="0.0683" style="stop-color:#132D38"/>
		<stop  offset="0.1086" style="stop-color:#122B35"/>
		<stop  offset="0.2204" style="stop-color:#122A34"/>
		<stop  offset="0.3305" style="stop-color:#112934"/>
		<stop  offset="0.6075" style="stop-color:#102834"/>
		<stop  offset="0.725" style="stop-color:#112936"/>
		<stop  offset="0.821" style="stop-color:#132D3B"/>
		<stop  offset="0.9095" style="stop-color:#153443"/>
		<stop  offset="0.9929" style="stop-color:#183D4F"/>
		<stop  offset="1" style="stop-color:#183E50"/>
	</linearGradient>
	<path fill="url(#SVGID_5_)" d="M18.929,717.655c0,0,45.783,495.987,572.293,602.815c0,0,362.452,59.137,635.245-265.162
		c0,0,114.459-158.334,140.212-349.099c0,0,4.769,314.284-222.717,514.587c0,0-250.378,243.224-609.492,158.811
		c0,0-283.285-60.091-420.635-297.592C113.834,1082.015,7.006,909.85,18.929,717.655z"/>
	<linearGradient id="SVGID_6_" gradientUnits="userSpaceOnUse" x1="686.9796" y1="136.296" x2="909.0075" y2="993.7631">
		<stop  offset="0" style="stop-color:#7CBC75"/>
		<stop  offset="0.0133" style="stop-color:#76BA76"/>
		<stop  offset="0.0504" style="stop-color:#6AB777"/>
		<stop  offset="0.1025" style="stop-color:#63B577"/>
		<stop  offset="0.2473" style="stop-color:#61B578"/>
		<stop  offset="0.3381" style="stop-color:#53A069"/>
		<stop  offset="0.515" style="stop-color:#31784C"/>
		<stop  offset="0.6338" style="stop-color:#175E3A"/>
		<stop  offset="0.689" style="stop-color:#165B3B"/>
		<stop  offset="0.7709" style="stop-color:#14553E"/>
		<stop  offset="0.8693" style="stop-color:#0F4C44"/>
		<stop  offset="0.9798" style="stop-color:#0B3F4A"/>
		<stop  offset="1" style="stop-color:#0A3D4B"/>
	</linearGradient>
	<path fill="url(#SVGID_6_)" d="M805.595,170.23c0,0-52.104,8.002-72.254,13.285C322.244,291.297,327.967,596.52,327.967,596.52
		C313.659,762.485,458.64,876.943,458.64,876.943c180.272,146.888,389.159,61.045,389.159,61.045
		c144.875-67.562,256.69-179.883,306.474-235.566c0,0-143.371,227.936-269.275,297.326c0,0-192.434,105.874-432.797-32.191
		c0,0-241.555-131.627-202.449-421.589c0,0,23.846-286.146,395.836-407.282c0,0,313.807-125.904,637.153,67.721
		C1282.742,206.407,1109.628,95.901,805.595,170.23z"/>
</g>
</svg>
